<?xml version="1.0" encoding="UTF-8"?>
<!DOCTYPE svg PUBLIC "-//W3C//DTD SVG 1.1//EN" "http://www.w3.org/Graphics/SVG/1.1/DTD/svg11.dtd">
<svg version="1.1" xmlns="http://www.w3.org/2000/svg" xmlns:xlink="http://www.w3.org/1999/xlink" x="0" y="0" width="357" height="357" viewBox="0, 0, 357, 357">
  <g id="Layer_1">
    <path d="M225.335,117.282 C225.335,177.122 176.824,225.633 116.984,225.633 C57.143,225.633 8.632,177.122 8.632,117.282 C8.632,57.44 57.143,8.93 116.984,8.93 C176.824,8.93 225.335,57.44 225.335,117.282 z" fill="#9ED0F0"/>
    <path d="M238.194,129.546 C238.194,189.386 189.683,237.896 129.843,237.896 C70.002,237.896 21.491,189.386 21.491,129.546 C21.491,69.704 70.002,21.193 129.843,21.193 C189.683,21.193 238.194,69.704 238.194,129.546 z" fill-opacity="0" stroke="#1D1D1B" stroke-width="5.953"/>
    <path d="M224.501,129.545 C224.501,181.824 182.122,224.204 129.843,224.204 C77.564,224.204 35.184,181.824 35.184,129.545 C35.184,77.267 77.564,34.887 129.843,34.887 C182.122,34.887 224.501,77.267 224.501,129.545 z" fill-opacity="0" stroke="#1D1D1B" stroke-width="5.953"/>
    <path d="M203.664,224.501 L304.276,337.913 C314.695,349.82 331.365,351.904 340.592,342.675 L342.973,340.294 C352.201,331.067 350.118,314.397 338.21,303.979 L224.799,203.367 z" fill-opacity="0" stroke="#000000" stroke-width="5.953"/>
    <path d="M61.081,129.843 L97.695,129.843 L121.508,87.277 L133.713,155.739 L156.038,111.686 L166.159,132.522 L201.581,132.522" fill-opacity="0" stroke="#000000" stroke-width="5.953" stroke-linecap="round"/>
  </g>
</svg>
